# xmcd
#
# Track frame offsets: 
#        150
#        21687
#        45887
#        71547
#        90900
#        116195
#        141445
#        160305
#        191352
#        210937
#        235452
#        251875
#        274920
#        294397
#
# Disc length: 4284 seconds
#
# Revision: 0
# Processed by: cddbd v1.5.2PL0 Copyright (c) Steve Scherf et al.
# Submitted via: ExactAudioCopy v0.99pb5
#
DISCID=ce10ba0e
DTITLE=The Jeremiah Johnson Band and The Texas Alligators - Dirty Mind
DYEAR=2010
DGENRE=Blues
TTITLE0=Cruisin
TTITLE1=Dirty Mind
TTITLE2=6 Ft. Under
TTITLE3=Back To St. Lou
TTITLE4=Aphrodisiac
TTITLE5=Move It On Down The Line
TTITLE6=King Of The Road
TTITLE7=Red Devil Lover
TTITLE8=Pressure Cookin Woman
TTITLE9=Choose Who You Lose
TTITLE10=She's Got Some
TTITLE11=Steal My Bone
TTITLE12=Sundown
TTITLE13=You Don't Know Me
EXTD=
EXTT0=
EXTT1=
EXTT2=
EXTT3=
EXTT4=
EXTT5=
EXTT6=
EXTT7=
EXTT8=
EXTT9=
EXTT10=
EXTT11=
EXTT12=
EXTT13=
PLAYORDER=
